<?xml version="1.0" encoding="UTF-8"?>
<svg width="20px" height="21px" viewBox="0 0 20 21" version="1.1" xmlns="http://www.w3.org/2000/svg" xmlns:xlink="http://www.w3.org/1999/xlink">
    <title>在线客服</title>
    <g id="展业端H5UI-20210622" stroke="none" stroke-width="1" fill="none" fill-rule="evenodd" fill-opacity="0.852928322">
        <g id="2-2-1产品详情" transform="translate(-38.000000, -2381.000000)" fill="#172B4D" fill-rule="nonzero">
            <g id="foot" transform="translate(0.000000, 2181.000000)">
                <g id="吸底" transform="translate(0.000000, 188.000000)">
                    <g id="编组-8" transform="translate(22.000000, 12.000000)">
                        <g id="路径" transform="translate(16.000000, 0.000000)">
                            <path d="M20,15.1012871 C19.9991148,17.9373267 18.0385966,20.3907921 15.2869663,21 L14.6490012,19.0734653 C15.8319809,18.8774257 16.8653545,18.1577228 17.4649591,17.1124752 L14.9998525,17.1124752 C13.8953643,17.1124752 12.9997934,16.2109901 12.9997934,15.0992079 L12.9997934,11.0726733 C12.9997934,9.96089109 13.8953643,9.05940594 14.9998525,9.05940594 L17.937974,9.05940594 C17.384402,4.64643564 13.3819233,1.52049505 8.99790492,2.07772277 C5.37372009,2.53811881 2.51940158,5.41128713 2.06202603,9.05940594 L5.00014754,9.05940594 C6.10463572,9.05940594 7.00020656,9.96089109 7.00020656,11.0726733 L7.00020656,15.0992079 C7.00020656,16.2109901 6.10463572,17.1124752 5.00014754,17.1124752 L2.00005902,17.1124752 C0.895570834,17.1124752 0,16.2109901 0,15.0992079 L0,10.0660396 C0,4.50653465 4.47696893,0 10,0 C15.5230311,0 20,4.50653465 20,10.0660396 L20,15.1012871 Z"></path>
                        </g>
                    </g>
                </g>
            </g>
        </g>
    </g>
</svg>