<?xml version="1.0" encoding="UTF-8"?>
<svg width="25px" height="25px" viewBox="0 0 25 25" version="1.1" xmlns="http://www.w3.org/2000/svg" xmlns:xlink="http://www.w3.org/1999/xlink">
    <!-- Generator: Sketch 55.2 (78181) - https://sketchapp.com -->
    <title>弹窗-关闭</title>
    <desc>Created with Sketch.</desc>
    <g id="阿保2.2+" stroke="none" stroke-width="1" fill="none" fill-rule="evenodd">
        <g id="底部弹窗-保费试算" transform="translate(-696.000000, -310.000000)" fill="#191C20" fill-rule="nonzero">
            <g id="编组-25" transform="translate(0.000000, 267.000000)">
                <g id="icon-弹窗-关闭" transform="translate(696.000000, 43.000000)">
                    <g id="弹窗-关闭">
                        <path d="M12.5,11.0987754 L22.3085723,1.29020312 C22.6955098,0.903265627 23.3228594,0.903265627 23.7097969,1.29020312 C24.0967344,1.67714061 24.0967344,2.30449024 23.7097969,2.69142773 L13.9012246,12.5 L23.7097969,22.3085723 C24.0967344,22.6955098 24.0967344,23.3228594 23.7097969,23.7097969 C23.3228594,24.0967344 22.6955098,24.0967344 22.3085723,23.7097969 L12.5,13.9012246 L2.69142773,23.7097969 C2.30449024,24.0967344 1.67714061,24.0967344 1.29020312,23.7097969 C0.903265627,23.3228594 0.903265627,22.6955098 1.29020312,22.3085723 L11.0987754,12.5 L1.29020312,2.69142773 C0.903265627,2.30449024 0.903265627,1.67714061 1.29020312,1.29020312 C1.67714061,0.903265627 2.30449024,0.903265627 2.69142773,1.29020312 L12.5,11.0987754 Z"></path>
                    </g>
                </g>
            </g>
        </g>
    </g>
</svg>