<?xml version="1.0" encoding="UTF-8"?>
<svg width="166px" height="140px" viewBox="0 0 166 140" version="1.1" xmlns="http://www.w3.org/2000/svg" xmlns:xlink="http://www.w3.org/1999/xlink">
    <!-- Generator: Sketch 54.1 (76490) - https://sketchapp.com -->
    <title>承保中</title>
    <desc>Created with Sketch.</desc>
    <g id="Page-2" stroke="none" stroke-width="1" fill="none" fill-rule="evenodd" opacity="0.600000024">
        <g id="保单状态" transform="translate(-501.000000, -104.000000)" fill="#FF9600">
            <g id="承保中" transform="translate(501.000000, 104.000000)">
                <g>
                    <g>
                        <path d="M141.527794,108.413538 C129.015008,127.439742 107.474307,140 83,140 C45.6841862,140 15.1880951,110.801296 13.1126417,74.0048018 L0.0376390538,70.5013653 L0.814096189,67.6035879 L155.362228,109.014635 L154.585771,111.912413 L141.527794,108.413538 Z M17.1939999,75.0983984 C19.7967285,109.166781 48.2647472,136 83,136 C105.600465,136 125.547731,124.640307 137.44354,107.319181 L131.256841,105.661445 C120.326971,120.4272 102.781409,130 83,130 C52.1465804,130 26.7323516,106.712056 23.3760072,76.7548622 L17.1939999,75.0983984 Z M25.4565375,77.3123387 C29.0519013,105.892911 53.444257,128 83,128 C101.838855,128 118.579929,119.018337 129.174698,105.103536 L108.451868,99.5508703 C101.621006,105.439538 92.7262984,109 83,109 C65.9679116,109 51.4858817,98.0819022 46.1709531,82.8627496 L25.4565375,77.3123387 Z M47.3471025,83.1778979 C52.7053189,97.669346 66.6462327,108 83,108 C92.2306203,108 100.69254,104.708802 107.276291,99.2358756 L47.3471025,83.1778979 Z M148.798913,64.8096767 C146.152047,30.7849632 117.704005,4 83,4 C60.4326084,4 40.5106555,15.3264701 28.608736,32.6048158 L34.7988434,34.26345 C45.7325827,19.5403387 63.2521586,10 83,10 C113.821542,10 139.215128,33.2398473 142.613519,63.1523053 L148.798913,64.8096767 Z M24.5226105,31.5099293 C37.0427882,12.5265825 58.558524,0 83,0 C120.284904,0 150.761378,29.1503519 152.882142,65.9037746 L165.973809,69.4116762 L165.197352,72.3094537 L10.6492199,30.8984065 L11.425677,28.000629 L24.5226035,31.5099399 Z M140.531663,62.5944737 C136.895058,34.0590492 112.523613,12 83,12 C64.1949009,12 47.4800709,20.9495056 36.8823127,34.8217139 L57.6279654,40.3804948 C64.4482275,34.5328074 73.311548,31 83,31 C99.9949984,31 114.451033,41.870598 119.794194,57.0378857 L140.531663,62.5944737 Z M118.61575,56.7221224 C113.230509,42.2831644 99.3161352,32 83,32 C73.8076918,32 65.3777162,35.2639338 58.8057842,40.6960904 L118.61575,56.7221224 Z" id="合并形状" fill-rule="nonzero"></path>
                        <text fill-rule="nonzero" transform="translate(83.005724, 69.956521) rotate(-345.000000) translate(-83.005724, -69.956521) " font-family="PingFangSC-Medium, PingFang SC" font-size="30" font-weight="400" line-spacing="38" letter-spacing="2">
                            <tspan x="36.0057241" y="82.9565208">承保</tspan>
                            <tspan x="100.005724" y="82.9565208">中</tspan>
                        </text>
                    </g>
                </g>
            </g>
        </g>
    </g>
</svg>