<?xml version="1.0" encoding="UTF-8"?>
<svg width="166px" height="140px" viewBox="0 0 166 140" version="1.1" xmlns="http://www.w3.org/2000/svg" xmlns:xlink="http://www.w3.org/1999/xlink">
    <!-- Generator: Sketch 55.2 (78181) - https://sketchapp.com -->
    <title>其它</title>
    <desc>Created with Sketch.</desc>
    <g id="0923新增" stroke="none" stroke-width="1" fill="none" fill-rule="evenodd">
        <g id="保单详情-新增缴费单备份" transform="translate(-544.000000, -588.000000)" fill="#75777A">
            <g id="其它" transform="translate(544.000000, 588.000000)">
                <g>
                    <g>
                        <path d="M141.490155,108.413538 C128.977369,127.439742 107.436668,140 82.9623609,140 C45.6465471,140 15.1504561,110.801296 13.0750027,74.0048018 L-6.37156994e-13,70.5013653 L0.776457135,67.6035879 L155.324589,109.014635 L154.548132,111.912413 L141.490155,108.413538 Z M17.1563609,75.0983984 C19.7590894,109.166781 48.2271081,136 82.9623609,136 C105.562825,136 125.510092,124.640307 137.405901,107.319181 L131.219202,105.661445 C120.289332,120.4272 102.74377,130 82.9623609,130 C52.1089414,130 26.6947125,106.712056 23.3383682,76.7548622 L17.1563609,75.0983984 Z M25.4188984,77.3123387 C29.0142622,105.892911 53.406618,128 82.9623609,128 C101.801216,128 118.54229,119.018337 129.137059,105.103536 L108.414229,99.5508703 C101.583367,105.439538 92.6886593,109 82.9623609,109 C65.9302726,109 51.4482426,98.0819022 46.1333141,82.8627496 L25.4188984,77.3123387 Z M47.3094634,83.1778979 C52.6676798,97.669346 66.6085936,108 82.9623609,108 C92.1929812,108 100.654901,104.708802 107.238652,99.2358756 L47.3094634,83.1778979 Z M148.761274,64.8096767 C146.114408,30.7849632 117.666366,4 82.9623609,4 C60.3949693,4 40.4730165,15.3264701 28.5710969,32.6048158 L34.7612043,34.26345 C45.6949437,19.5403387 63.2145196,10 82.9623609,10 C113.783903,10 139.177488,33.2398473 142.57588,63.1523053 L148.761274,64.8096767 Z M24.4849714,31.5099293 C37.0051491,12.5265825 58.520885,0 82.9623609,0 C120.247265,0 150.723739,29.1503519 152.844503,65.9037746 L165.93617,69.4116762 L165.159713,72.3094537 L10.6115808,30.8984065 L11.388038,28.000629 L24.4849645,31.5099399 Z M140.494024,62.5944737 C136.857419,34.0590492 112.485974,12 82.9623609,12 C64.1572619,12 47.4424318,20.9495056 36.8446736,34.8217139 L57.5903263,40.3804948 C64.4105884,34.5328074 73.273909,31 82.9623609,31 C99.9573594,31 114.413394,41.870598 119.756555,57.0378857 L140.494024,62.5944737 Z M118.578111,56.7221224 C113.19287,42.2831644 99.2784961,32 82.9623609,32 C73.7700528,32 65.3400772,35.2639338 58.7681451,40.6960904 L118.578111,56.7221224 Z" id="合并形状" fill-rule="nonzero"></path>
                        <text id="其-他" fill-rule="nonzero" transform="translate(83.000000, 70.000000) rotate(-345.000000) translate(-83.000000, -70.000000) " font-family="PingFangSC-Medium, PingFang SC" font-size="30" font-weight="400" line-spacing="38">
                            <tspan x="48" y="83">其 他</tspan>
                        </text>
                    </g>
                </g>
            </g>
        </g>
    </g>
</svg>