<?xml version="1.0" encoding="UTF-8"?>
<svg width="15px" height="15px" viewBox="0 0 15 15" version="1.1" xmlns="http://www.w3.org/2000/svg" xmlns:xlink="http://www.w3.org/1999/xlink">
    <title>日历icon</title>
    <g id="展业端H5UI-20210622" stroke="none" stroke-width="1" fill="none" fill-rule="evenodd">
        <g id="5-1-2订单列表-待处理筛选" transform="translate(-145.000000, -416.000000)">
            <g id="筛选弹层" transform="translate(0.000000, 284.000000)">
                <g id="筛选项" transform="translate(30.000000, 52.000000)">
                    <g id="日历icon" transform="translate(115.000000, 80.000000)">
                        <g id="路径_1500" transform="translate(0.000000, 1.000000)">
                            <path d="M11.641,0.6 L2.635,0.6 C1.96629838,0.605281655 1.32711618,0.876136391 0.858213173,1.35291697 C0.389310167,1.82969754 0.129141089,2.47330319 0.134903147,3.142 L0.134903147,10.525 C0.129141089,11.1936968 0.389310167,11.8373025 0.858213173,12.314083 C1.32711618,12.7908636 1.96629838,13.0617183 2.635,13.067 L11.641,13.067 C12.3097016,13.0617183 12.9488838,12.7908636 13.4177868,12.314083 C13.8866898,11.8373025 14.1468589,11.1936968 14.1410969,10.525 L14.1410969,3.142 C14.1468589,2.47330319 13.8866898,1.82969754 13.4177868,1.35291697 C12.9488838,0.876136391 12.3097016,0.605281655 11.641,0.6 Z" id="路径"></path>
                            <path d="M2.63500977,1.6000061 C1.80957031,1.6000061 1.13800049,2.29174805 1.13800049,3.14199829 L1.13800049,10.5249939 C1.13800049,11.3752441 1.80957031,12.0669861 2.63500977,12.0669861 L11.6409912,12.0669861 C12.4664307,12.0669861 13.1380005,11.3752441 13.1380005,10.5249939 L13.1380005,3.14199829 C13.1380005,2.29174805 12.4664307,1.6000061 11.6409912,1.6000061 L2.63500977,1.6000061 L2.63500977,1.6000061 Z M2.63500977,0.600006104 L11.6409912,0.600006104 C13.0200195,0.600006104 14.1380005,1.73800659 14.1380005,3.14199829 L14.1380005,10.5249939 C14.1380005,11.9289856 13.0200195,13.0669861 11.6409912,13.0669861 L2.63500977,13.0669861 C1.25598145,13.0669861 0.138000488,11.9289856 0.138000488,10.5249939 L0.138000488,3.14199829 C0.138000488,1.73800659 1.25598145,0.600006104 2.63500977,0.600006104 Z" id="形状" fill="#B3BAC5" fill-rule="nonzero"></path>
                        </g>
                        <g id="组_815" transform="translate(3.000000, 0.000000)" stroke="#B3BAC5" stroke-linecap="round" stroke-linejoin="round">
                            <line x1="1.191" y1="3.338" x2="1.191" y2="0.871" id="直线_20"></line>
                            <line x1="7.085" y1="3.338" x2="7.085" y2="0.871" id="直线_21"></line>
                        </g>
                        <line x1="0.938" y1="6.132" x2="13.376" y2="6.132" id="直线_22" stroke="#B3BAC5"></line>
                        <line x1="4.191" y1="8.663" x2="10.084" y2="8.663" id="直线_23" stroke="#B3BAC5" stroke-linecap="round"></line>
                        <line x1="4.191" y1="11.1" x2="10.084" y2="11.1" id="直线_24" stroke="#B3BAC5" stroke-linecap="round"></line>
                    </g>
                </g>
            </g>
        </g>
    </g>
</svg>