<?xml version="1.0" encoding="UTF-8"?>
<svg width="121px" height="74px" viewBox="0 0 121 74" version="1.1" xmlns="http://www.w3.org/2000/svg" xmlns:xlink="http://www.w3.org/1999/xlink">
    <title>分享引导箭头</title>
    <g id="展业端H5UI-20210622" stroke="none" stroke-width="1" fill="none" fill-rule="evenodd">
        <g id="6-4-3邀请好友-分享引导" transform="translate(-233.000000, -96.000000)" fill="#FFFFFF">
            <g id="分享引导箭头" transform="translate(233.000000, 96.000000)">
                <g id="引导箭头" transform="translate(60.500000, 37.000000) scale(-1, -1) translate(-60.500000, -37.000000) ">
                    <path d="M1.6930168,58.9056684 C2.41060771,59.9247878 3.06888691,60.9783274 3.72393827,62.0344838 C4.37213045,63.0942633 4.99571029,64.1683343 5.59911609,65.253476 C6.00273155,65.9759645 6.39603584,66.7041786 6.78124061,67.4366271 L7.099,68.0487316 L7.22568404,67.8787042 C7.61182745,66.9777688 8.0435711,66.145408 8.45192829,65.3273486 C8.98109359,64.2852824 9.5183285,63.2468394 10.0727114,62.2162466 C10.6299186,61.1866602 11.188538,60.157879 11.7889177,59.1482201 C12.0293923,58.7442357 12.5525054,58.6109833 12.9576003,58.8507169 C13.3080235,59.0580432 13.4548906,59.4773254 13.3324341,59.8482985 C12.964863,60.9636335 12.5553298,62.059846 12.1443844,63.1556561 C11.7308164,64.2500571 11.2998987,65.3368091 10.8611132,66.4197367 C10.4168806,67.5107159 9.96135061,68.5614374 9.62807533,69.5696873 C9.29540526,70.5805539 9.10213788,71.5539811 9.13845117,72.4648077 C9.17093138,73.2796202 8.53524711,73.9664137 7.71860163,73.998821 C7.11216973,74.0227742 6.57675048,73.6795787 6.32760098,73.1675029 L6.32195225,73.1550231 L4.71650146,69.8422308 L3.12880384,66.5189716 C2.60266465,65.4090714 2.0811655,64.2963532 1.56874466,63.1775964 C1.06318301,62.0552164 0.545113439,60.9382712 0.0712250383,59.7955612 C-0.125673676,59.32173 0.0996704467,58.7782533 0.57456755,58.5815953 C0.984705957,58.4119098 1.44770037,58.5576421 1.6930168,58.9056684 Z M120.019062,0.252429077 C120.209479,0.469969812 120.196838,0.795679973 120,1 C112,15 101.410594,26.0151453 98.3663289,28.3976771 C96.8405845,29.5813311 95.2594606,30.7094981 93.5918565,31.7132703 C92.7593587,32.2164585 91.9102069,32.6960096 91.041592,33.1415074 C90.6029706,33.3560434 90.1715725,33.585002 89.7219154,33.7783048 C89.2742647,33.9758142 88.8348407,34.1883471 88.3743484,34.3628203 C84.7365596,35.8427383 80.7996012,36.6047319 76.8622416,36.5117863 C74.8952673,36.4593041 72.9286944,36.1908836 71.0239217,35.6668629 C70.7859505,35.6003587 70.5453708,35.5440705 70.3100081,35.4689529 L69.6083342,35.2283761 L69.1407449,35.067947 C69.0631452,35.0402592 68.9861178,35.0109689 68.910272,34.9783845 L68.226456,34.6889311 L67.8833441,34.5467084 C67.7679702,34.5016378 67.6550042,34.4511587 67.5456498,34.3928674 L66.8812968,34.0589444 C66.4364553,33.8440077 66.0002416,33.5936155 65.5786755,33.3259964 C64.3982903,32.5738583 63.3013776,31.7001077 62.2922732,30.7257005 L61.995,30.4307316 L62.081,30.4137316 L61.978,30.4137316 L61.995,30.4307316 L61.6235918,30.5027892 C61.2971115,30.5646935 60.9697395,30.6217607 60.6414757,30.6618235 C59.657487,30.8030447 58.6706891,30.8803658 57.6891081,30.9068072 C56.7065239,30.9406602 55.7313638,30.9146194 54.7618218,30.8813673 C53.7918786,30.847314 52.8309646,30.7982371 51.8730604,30.7435515 C49.9596597,30.6361833 48.0673273,30.5097853 46.1902443,30.4526959 C44.3161711,30.4014156 42.4400914,30.4118319 40.5694292,30.5352252 C38.6991683,30.6578172 36.8367328,30.8859745 34.9967702,31.2279101 C33.1580114,31.5718488 31.3379131,32.0245579 29.5826248,32.6539437 C27.8231229,33.2691073 26.1286316,34.0515328 24.5178115,34.9529447 C24.1072811,35.1640754 23.7170164,35.4104613 23.3189263,35.6408221 L22.7246003,35.9903696 C22.5261572,36.1063512 22.3389506,36.2399605 22.1439185,36.3603491 L21.56424,36.7301283 C21.3708132,36.8529206 21.1727714,36.9687019 20.9885745,37.1049153 C20.611954,37.3649225 20.2363367,37.6257311 19.8559039,37.8793283 C18.3737006,38.9347814 16.9703528,40.1038125 15.6829809,41.3984403 C14.3998226,42.6966737 13.2356499,44.1128919 12.2010973,45.619652 C11.9528929,46.0028522 11.6846236,46.3750351 11.4510667,46.7674498 L10.7538071,47.9489003 L10.5383608,48.3519835 L10.5383608,48.3519835 L10.1243673,49.1678095 L10.1243673,49.1678095 C9.90445467,49.5706404 9.73771432,49.9961068 9.55532326,50.4159644 C8.83157785,52.0949943 8.25611297,53.8491418 7.92524072,55.6565728 C7.58935223,57.462201 7.4450847,59.3082925 7.51310513,61.1674045 L7.51370709,61.1800242 C7.52474285,61.4849018 7.28616972,61.7411031 6.98078005,61.7523206 C6.69786322,61.7625366 6.45688228,61.5586172 6.41414378,61.2861905 C6.10935607,59.354565 6.06621627,57.373462 6.27188276,55.4125907 C6.33629149,54.9244261 6.3898651,54.4326558 6.46530959,53.9446915 L6.76789015,52.4948206 C6.81183255,52.2506381 6.88607314,52.0156701 6.95188642,51.7776973 L7.15374056,51.0643801 C7.22477074,50.8278095 7.28075216,50.5852296 7.36462396,50.3532662 L7.61623936,49.6557738 C8.29223001,47.7990656 9.14037856,45.9948396 10.2082391,44.3264264 C10.3404676,44.1172988 10.4590519,43.8983559 10.6029181,43.6970406 L11.0260895,43.0866846 C11.3104109,42.6812495 11.5832952,42.2663998 11.8991187,41.8840008 L12.5116816,41.1044835 C12.6145483,40.9750883 12.7185743,40.8466426 12.8249189,40.7201779 L13.8197428,39.6134444 C15.1873748,38.1763936 16.6749956,36.8457093 18.2864177,35.6750757 C19.9010502,34.522871 21.6541313,33.5821976 23.456773,32.7927612 C25.2582109,31.9937096 27.1276691,31.3919671 28.9935157,30.8352952 C30.8651811,30.295049 32.7444712,29.7914602 34.6546615,29.4425136 C35.1291993,29.3383505 35.6085527,29.2644347 36.0867022,29.1837083 C36.5650524,29.1033825 37.0432019,29.0204526 37.5237592,28.9569531 C38.0039153,28.8916508 38.4832687,28.81453 38.9648293,28.7590431 L40.4107149,28.6015965 C42.3409702,28.4255207 44.2786495,28.3163497 46.2171315,28.2985218 C48.1528043,28.2911102 50.0690141,28.3598178 51.9649582,28.4034862 C52.9120273,28.4189104 53.856488,28.4393424 54.7929226,28.4253204 C55.7293573,28.4108978 56.6613776,28.3836552 57.5833655,28.3311729 C57.8147152,28.3215579 58.0450617,28.3091384 58.2742042,28.2903089 L58.9628359,28.2470412 C59.2667541,28.2175283 59.5720992,28.1973634 59.8759579,28.1708181 L60.006,28.1567316 L60.006,28.1287316 L59.8807507,27.9606313 C59.0587847,26.8209898 58.3581995,25.5796016 57.8365861,24.2453733 C57.0849503,22.3223613 56.7297994,20.2024409 56.8949345,18.0851245 C56.974392,17.0278685 57.1922982,15.9754201 57.5408276,14.9692441 C57.6347319,14.7198535 57.7224161,14.46866 57.8239451,14.2230754 C57.9337008,13.9800948 58.0348285,13.7359123 58.1534128,13.4959365 C58.2794211,13.2577634 58.3968015,13.0153838 58.5320398,12.7840214 L58.8102897,12.3266383 C58.8573384,12.2509865 58.905383,12.1760691 58.9554118,12.102554 C59.5463267,11.2135616 60.2435863,10.4036931 61.0317405,9.68656983 C61.8233056,8.97405381 62.706568,8.34747239 63.6909581,7.88174292 C64.6721377,7.41541251 65.751636,7.10672901 66.8648435,7.02239692 C67.9718309,6.94287236 69.1237639,7.07047222 70.1777796,7.47991353 C70.7048878,7.67702227 71.210727,7.92841602 71.674831,8.23369418 C72.1411422,8.53516638 72.5785597,8.87650101 72.9672192,9.25970122 C73.3588885,9.64029735 73.7164472,10.0501393 74.0288596,10.486623 C74.3464889,10.9199016 74.6267973,11.376016 74.8671763,11.8489568 C75.8347118,13.7371142 76.2428343,15.8746623 76.0118859,17.9689425 C75.8916964,19.0089715 75.6202166,20.0590162 75.1621322,20.9956833 C75.0499687,21.227246 74.9408149,21.4598103 74.8254411,21.6887689 L74.4325679,22.349604 C74.3087667,22.5739554 74.1550686,22.7780751 74.0089952,22.9870024 C73.8585076,23.1925243 73.7240719,23.4102653 73.5541211,23.5995618 C72.9317041,24.405424 72.1989294,25.104519 71.4438826,25.7645528 L70.8585859,26.2362917 C70.6655603,26.3965427 70.4536737,26.5293507 70.2518195,26.6767817 C69.8509204,26.9768517 69.4201243,27.2266429 69.004979,27.5044781 C68.1482024,28.0104706 67.2811928,28.5072487 66.3744543,28.9305117 C65.6492241,29.265917 64.9093545,29.5837589 64.1483732,29.8434232 L63.983,29.8957316 L63.983,29.9957316 L64.1550581,30.1789874 C64.8338274,30.8799924 65.5899582,31.5079025 66.4081636,32.0399821 C66.7867906,32.2885714 67.1742462,32.5199338 67.5845759,32.725656 L68.1921448,33.0439546 C68.2920687,33.0998421 68.3958048,33.1479174 68.5019488,33.1909849 L68.8171703,33.3271982 L69.4498205,33.5948174 C69.6603026,33.6849586 69.8824224,33.745854 70.0981215,33.8231751 L70.7494321,34.0443215 C70.9679402,34.1132294 71.1924679,34.1639088 71.4137851,34.2250045 C73.189941,34.6931377 75.0357225,34.9012637 76.8788956,34.8874421 C80.5722645,34.8632041 84.2371411,33.9956452 87.6510043,32.60046 C88.5073795,32.2543178 89.351515,31.8613022 90.1812038,31.4446496 C91.0143035,31.0330048 91.8325552,30.5873067 92.6377646,30.1171704 C93.1366157,29.8235588 93.5190527,29.6089284 93.8893349,29.392081 L94.1355331,29.2462966 C94.5055618,29.0244541 94.8866042,28.7823506 95.3829197,28.4387877 L95.7320183,28.1938238 C96.1618934,27.8884172 96.6755172,27.5107185 97.3219444,27.0225232 C100,25 109,16 118,2 C118.548775,1.32836903 118.961084,0.728818716 119.236927,0.20134907 C119.468678,-0.000767506322 119.81801,0.0226692027 120.019062,0.252429077 Z M67.0534547,9.39130736 C66.2659026,9.45560807 65.4847712,9.69137736 64.7542037,10.0583522 C63.2886543,10.7888964 62.0281695,12.0360498 61.2061055,13.4949349 C61.1013661,13.6760185 61.0142839,13.8665169 60.9165672,14.0504049 C60.8248701,14.2372977 60.7510308,14.4314017 60.6661557,14.6200972 C60.5881028,14.8129994 60.5230921,15.0159172 60.4498548,15.2118241 C60.385446,15.4119375 60.3296653,15.6150556 60.2674637,15.8149688 C60.0463471,16.6256385 59.9207401,17.4581425 59.8649593,18.2988593 C59.7580127,19.9820958 59.9711033,21.6995859 60.4253754,23.3836236 C60.8341321,24.8982093 61.4514829,26.3946303 62.2983315,27.7735056 L62.467,27.8567316 L62.6931244,27.825581 L63.0252006,27.7624822 C63.9194987,27.6224629 64.8023597,27.4079269 65.6769941,27.1525268 C66.5494213,26.8899155 67.3939582,26.5399674 68.2015754,26.1189079 C68.9959497,25.6776167 69.7467829,25.1618088 70.4348126,24.5790961 C70.6109835,24.4380752 70.7686945,24.2776239 70.9332277,24.1245842 L71.1778204,23.8928211 L71.292793,23.7702291 L71.292793,23.7702291 L71.4053578,23.6458343 C71.5542402,23.4789729 71.7097442,23.31752 71.8536104,23.1472534 L72.2593252,22.6170229 C72.7663683,21.8902846 73.2246535,21.1272895 73.5172015,20.2995931 C73.8448633,19.5003412 73.9921406,18.6646322 74.0342772,17.8118966 C74.0507305,17.3860295 74.032672,16.9587603 73.9965549,16.5338948 C73.9481982,16.1092297 73.8819836,15.686768 73.7808559,15.2719182 C73.5854226,14.4414174 73.278829,13.6379589 72.8751207,12.8992018 C72.0715165,11.4226891 70.8302942,10.2107909 69.3611331,9.68196261 C68.6319702,9.40532932 67.8422108,9.32961072 67.0534547,9.39130736 Z" id="形状结合"></path>
                </g>
            </g>
        </g>
    </g>
</svg>