<?xml version="1.0" encoding="UTF-8"?>
<svg width="21px" height="21px" viewBox="0 0 21 21" version="1.1" xmlns="http://www.w3.org/2000/svg" xmlns:xlink="http://www.w3.org/1999/xlink">
    <title>展开icon</title>
    <g id="展业端H5UI-20210622" stroke="none" stroke-width="1" fill="none" fill-rule="evenodd">
        <g id="2-4-2投保页面-被保险人" transform="translate(-334.000000, -115.000000)">
            <g id="展开icon" transform="translate(334.000000, 115.000000)">
                <circle id="椭圆形" fill="#EBECF0" cx="10.5" cy="10.5" r="10.5"></circle>
                <path d="M14.8610458,12.8603313 C14.6963594,13.0258646 14.4407191,13.0442572 14.2558208,12.915509 L14.1901157,12.8603313 L10.5,9.15123928 L6.80988431,12.8603313 C6.64519787,13.0258646 6.38955763,13.0442572 6.20465924,12.915509 L6.13895418,12.8603313 C5.97426774,12.6947979 5.95596925,12.4378431 6.0840587,12.2519938 L6.13895418,12.1859509 L10.1645349,8.13966875 C10.3292214,7.97413542 10.5848616,7.95574283 10.76976,8.08449097 L10.8354651,8.13966875 L14.8610458,12.1859509 C15.0463181,12.3721759 15.0463181,12.6741063 14.8610458,12.8603313 Z" id="路径" fill="#172B4D" fill-rule="nonzero" transform="translate(10.500000, 10.500000) scale(1, -1) translate(-10.500000, -10.500000) "></path>
            </g>
        </g>
    </g>
</svg>