<?xml version="1.0" encoding="UTF-8"?>
<svg width="45px" height="45px" viewBox="0 0 45 45" version="1.1" xmlns="http://www.w3.org/2000/svg" xmlns:xlink="http://www.w3.org/1999/xlink">
    <!-- Generator: Sketch 55.2 (78181) - https://sketchapp.com -->
    <title>微信支付</title>
    <desc>Created with Sketch.</desc>
    <g id="阿保2.2+齐欣API前端对接" stroke="none" stroke-width="1" fill="none" fill-rule="evenodd">
        <g id="支付确认" transform="translate(-40.000000, -703.000000)" fill="#00B700" fill-rule="nonzero">
            <g id="微信支付" transform="translate(40.000000, 703.000000)">
                <g transform="translate(0.000000, 2.000000)" id="路径">
                    <path d="M16.3613709,25.2979101 C15.6455828,25.6646372 14.7700563,25.3964761 14.3780877,24.6904592 L14.2800338,24.4731468 L10.1860517,15.4207822 C10.1403688,15.3207964 10.116138,15.2122291 10.1149417,15.10217 C10.1149286,14.90178 10.1939577,14.7095945 10.3346394,14.567902 C10.4753211,14.4262096 10.6661284,14.3466201 10.8650758,14.3466464 C11.0270139,14.3457339 11.1847251,14.3986738 11.3137449,14.4972541 L16.1456722,17.9542215 C16.7377144,18.3458994 17.4792351,18.4311263 18.143661,18.1838609 L40.8692539,7.99562632 C36.7947641,3.16077289 30.0824929,0 22.4828023,0 C10.0708249,-0.00238535949 0,8.46236091 0,18.8900766 C0,24.5694263 3.03004616,29.7006736 7.77127241,33.1601263 C8.16796573,33.4441221 8.40293588,33.90455 8.40134357,34.3947611 C8.39791041,34.5622412 8.37150618,34.7284391 8.32288076,34.8886349 L7.30794706,38.6962746 C7.24513819,38.8748571 7.20478662,39.0606613 7.18783481,39.2493476 C7.19054893,39.6647364 7.52557032,40 7.93796887,40 C8.09269352,39.9940889 8.24281636,39.9453876 8.37188301,39.859234 L13.2969787,36.9972911 C13.6567961,36.7755956 14.0691448,36.6553579 14.4908964,36.6491538 C14.7153129,36.6496189 14.9384096,36.6837432 15.1528462,36.7504039 C17.5443001,37.4397279 20.0198809,37.7879897 22.5073281,37.7850238 C34.9291258,37.7850238 45,29.3326542 45,18.9048888 C44.9875986,15.8028769 44.0990297,12.7684741 42.4381153,10.1562247 L16.5378875,25.2188286 L16.3736584,25.3151579 L16.3613709,25.2978604 L16.3613709,25.2979101 Z"></path>
                </g>
            </g>
        </g>
    </g>
</svg>