<?xml version="1.0" encoding="UTF-8"?>
<svg width="40px" height="40px" viewBox="0 0 40 40" version="1.1" xmlns="http://www.w3.org/2000/svg" xmlns:xlink="http://www.w3.org/1999/xlink">
    <!-- Generator: Sketch 55.2 (78181) - https://sketchapp.com -->
    <title>icon-新增</title>
    <desc>Created with Sketch.</desc>
    <g id="阿保2.2+齐欣API前端对接" stroke="none" stroke-width="1" fill="none" fill-rule="evenodd">
        <g id="投保信息填写1" transform="translate(-270.000000, -2667.000000)" fill="#0065ff" fill-rule="nonzero">
            <g id="2" transform="translate(0.000000, 1691.000000)">
                <g id="编组" transform="translate(270.000000, 969.000000)">
                    <g id="icon-新增" transform="translate(0.000000, 7.000000)">
                        <path d="M18.9130435,18.6956522 L18.9130435,11.3043478 C18.9130435,10.5839764 19.4970199,10 20.2173913,10 C20.9377627,10 21.5217391,10.5839764 21.5217391,11.3043478 L21.5217391,18.6956522 L28.6956522,18.6956522 C29.4160236,18.6956522 30,19.2796286 30,20 C30,20.7203714 29.4160236,21.3043478 28.6956522,21.3043478 L21.5217391,21.3043478 L21.5217391,28.6956522 C21.5217391,29.4160236 20.9377627,30 20.2173913,30 C19.4970199,30 18.9130435,29.4160236 18.9130435,28.6956522 L18.9130435,21.3043478 L11.3043478,21.3043478 C10.5839764,21.3043478 10,20.7203714 10,20 C10,19.2796286 10.5839764,18.6956522 11.3043478,18.6956522 L18.9130435,18.6956522 Z M20,37.3913043 C29.6049522,37.3913043 37.3913043,29.6049522 37.3913043,20 C37.3913043,10.3950478 29.6049522,2.60869565 20,2.60869565 C10.3950478,2.60869565 2.60869565,10.3950478 2.60869565,20 C2.60869565,29.6049522 10.3950478,37.3913043 20,37.3913043 Z M20,40 C8.954305,40 0,31.045695 0,20 C0,8.954305 8.954305,0 20,0 C31.045695,0 40,8.954305 40,20 C40,31.045695 31.045695,40 20,40 Z"></path>
                    </g>
                </g>
            </g>
        </g>
    </g>
</svg>