<?xml version="1.0" encoding="UTF-8"?>
<svg width="45px" height="45px" viewBox="0 0 45 45" version="1.1" xmlns="http://www.w3.org/2000/svg" xmlns:xlink="http://www.w3.org/1999/xlink">
    <!-- Generator: Sketch 55.2 (78181) - https://sketchapp.com -->
    <title>支付宝支付</title>
    <desc>Created with Sketch.</desc>
    <g id="阿保2.2+齐欣API前端对接" stroke="none" stroke-width="1" fill="none" fill-rule="evenodd">
        <g id="支付确认" transform="translate(-40.000000, -804.000000)" fill="#00A7EF" fill-rule="nonzero">
            <g id="支付宝支付" transform="translate(40.000000, 804.000000)">
                <g transform="translate(3.000000, 2.000000)" id="形状">
                    <path d="M32.9446888,25.1196607 C35.2325321,26.0019704 37.5932467,26.6831423 39.9999546,27.1554075 L39.9999546,6.42229629 C40.0063657,4.7212298 39.3337084,3.08762494 38.1305943,1.88250901 C36.9274802,0.677393075 35.2929661,0 33.5882803,0 L6.41171972,0 C4.70802866,0.00321073534 3.07539485,0.681648086 1.87298065,1.88606293 C0.670566449,3.09047778 -0.00313215813,4.72221026 4.54108693e-05,6.42229629 L4.54108693e-05,33.5777037 C-0.00636566907,35.2787702 0.666291576,36.9123751 1.8694057,38.117491 C3.07251982,39.3226069 4.70703391,40 6.41171972,40 L33.5882803,40 C35.2919713,39.9967893 36.9246051,39.3183519 38.1270194,38.1139371 C39.3294336,36.9095222 40.0031322,35.2777897 39.9999546,33.5777037 L39.9999546,33.359588 C39.9999546,33.359588 29.6174423,29.0336262 24.3594215,26.4889427 C20.8378833,30.7664344 16.28417,33.359588 11.5725947,33.359588 C3.59448911,33.359588 0.898690884,26.3920024 4.67523708,21.7873372 C5.83647066,20.5227632 7.38016689,19.671697 9.07108825,19.3638291 C12.4711941,18.5277189 17.8870771,19.8848834 22.9508062,21.5571039 C23.896411,19.8053621 24.6496133,17.9568115 25.1973047,16.0436231 L9.58110413,16.0436231 L9.58110413,14.4562254 L17.6320691,14.4562254 L17.6320691,11.6449561 L7.84462148,11.6449561 L7.84462148,10.0696759 L17.6199259,10.0696759 L17.6199259,5.99818238 C17.6162698,5.81284787 17.6901316,5.63436719 17.8237701,5.50560991 C17.9574086,5.37685263 18.1387486,5.3094531 18.3242335,5.31960012 L22.270785,5.31960012 L22.270785,10.0696759 L31.9246571,10.0696759 L31.9246571,11.6449561 L22.270785,11.6449561 L22.270785,14.4804605 L30.1517447,14.4804605 C29.4553259,17.434921 28.3303292,20.2720783 26.812355,22.9021509 C29.2410021,23.7746137 31.3296385,24.5743714 32.8839727,25.1317782 L32.9446888,25.1196607 Z M9.73896617,21.738867 C8.32847227,21.8647712 6.97789969,22.3670251 5.8288444,23.1929718 C2.75660587,25.8709482 4.61452087,30.7664344 10.7954277,30.7664344 C14.4383982,30.7664344 18.0085094,28.4398667 20.8621697,24.768252 C16.8549021,22.7688579 13.4305097,21.3874583 9.73896617,21.738867 L9.73896617,21.738867 Z"></path>
                </g>
            </g>
        </g>
    </g>
</svg>