<?xml version="1.0" encoding="UTF-8"?>
<svg width="32px" height="32px" viewBox="0 0 32 32" version="1.1" xmlns="http://www.w3.org/2000/svg" xmlns:xlink="http://www.w3.org/1999/xlink">
    <!-- Generator: Sketch 55.2 (78181) - https://sketchapp.com -->
    <title>icon-理赔须知</title>
    <desc>Created with Sketch.</desc>
    <g id="阿保2.2+齐欣API前端对接" stroke="none" stroke-width="1" fill="none" fill-rule="evenodd">
        <g id="底部弹窗-理赔流程-全部内容" transform="translate(-40.000000, -1458.000000)">
            <g id="编组-21" transform="translate(0.000000, 273.000000)">
                <g id="icon-理赔须知" transform="translate(40.000000, 1185.000000)">
                    <g>
                        <g>
                            <circle id="椭圆形备份-3" fill="#FF9600" cx="16" cy="16" r="16"></circle>
                            <path d="M16,7 C16.8284271,7 17.5,7.67157288 17.5,8.5 L17.5,17.5 C17.5,18.3284271 16.8284271,19 16,19 C15.1715729,19 14.5,18.3284271 14.5,17.5 L14.5,8.5 C14.5,7.67157288 15.1715729,7 16,7 Z M16,21 C16.8284271,21 17.5,21.6715729 17.5,22.5 C17.5,23.3284271 16.8284271,24 16,24 C15.1715729,24 14.5,23.3284271 14.5,22.5 C14.5,21.6715729 15.1715729,21 16,21 Z" id="形状结合" fill="#FFFFFF"></path>
                        </g>
                    </g>
                </g>
            </g>
        </g>
    </g>
</svg>