<?xml version="1.0" encoding="UTF-8"?>
<svg width="159px" height="174px" viewBox="0 0 159 174" version="1.1" xmlns="http://www.w3.org/2000/svg" xmlns:xlink="http://www.w3.org/1999/xlink">
    <title>投保成功icon</title>
    <defs>
        <path d="M107,5.27233209 L107,104.890115 C107,110.406756 102.692583,115.099569 96.8548387,115.945369 L95.8387097,116.095986 L6.48387111,128.943577 C5.61890378,129.062419 4.73630317,128.995453 3.90322595,128.747776 C1.57556067,128.042647 0,126.017383 0,123.732245 L0,5.27233209 C0,2.36091936 2.52742494,0.000753012048 5.64516143,0.000753012048 L101.387097,0.000753012048 C104.492228,0.0173226648 107,2.37264278 107,5.27233209 L107,5.27233209 Z" id="path-1"></path>
        <filter x="-35.0%" y="-24.4%" width="170.1%" height="158.1%" filterUnits="objectBoundingBox" id="filter-2">
            <feOffset dx="0" dy="6" in="SourceAlpha" result="shadowOffsetOuter1"></feOffset>
            <feGaussianBlur stdDeviation="11.5" in="shadowOffsetOuter1" result="shadowBlurOuter1"></feGaussianBlur>
            <feColorMatrix values="0 0 0 0 0.226735433   0 0 0 0 0.437054197   0 0 0 0 0.687818878  0 0 0 0.0769927536 0" type="matrix" in="shadowBlurOuter1"></feColorMatrix>
        </filter>
        <circle id="path-3" cx="25" cy="25" r="25"></circle>
        <filter x="-81.0%" y="-57.0%" width="262.0%" height="262.0%" filterUnits="objectBoundingBox" id="filter-4">
            <feOffset dx="0" dy="12" in="SourceAlpha" result="shadowOffsetOuter1"></feOffset>
            <feGaussianBlur stdDeviation="11.5" in="shadowOffsetOuter1" result="shadowBlurOuter1"></feGaussianBlur>
            <feColorMatrix values="0 0 0 0 0.211764706   0 0 0 0 0.701960784   0 0 0 0 0.494117647  0 0 0 0.33 0" type="matrix" in="shadowBlurOuter1"></feColorMatrix>
        </filter>
    </defs>
    <g id="展业端H5UI-20210622" stroke="none" stroke-width="1" fill="none" fill-rule="evenodd">
        <g id="2-5-2投保支付成功" transform="translate(-108.000000, -140.000000)">
            <g id="投保成功icon" transform="translate(108.000000, 140.000000)">
                <g id="Artwork" transform="translate(23.000000, 17.000000)">
                    <g id="资源-1">
                        <g id="路径" fill-rule="nonzero">
                            <use fill="black" fill-opacity="1" filter="url(#filter-2)" xlink:href="#path-1"></use>
                            <use fill="#FFFFFF" xlink:href="#path-1"></use>
                        </g>
                        <path d="M96,115.547474 L6.58245614,128.941147 C5.71688182,129.06504 4.83366184,128.995228 4,128.737023 L80.2147368,106.000753 C80.5214035,106.518914 83.8140351,114.621065 96,115.547474 Z" id="路径" fill="#36B37E" fill-rule="nonzero" opacity="0.50062779"></path>
                        <rect id="矩形" fill="#E3E7EA" x="17" y="19" width="73" height="17" rx="4"></rect>
                        <path d="M17,66.000753 L17,66.000753 C17.004456,67.6557073 18.3091779,68.996175 19.92,69.000753 L87.08,69.000753 C88.6908221,68.996175 89.995544,67.6557073 90,66.000753 L90,66.000753 C89.995544,64.3457988 88.6908221,63.0053311 87.08,63.000753 L19.92,63.000753 C18.3091779,63.0053311 17.004456,64.3457988 17,66.000753 Z" id="路径" fill="#BAC2CB" fill-rule="nonzero" opacity="0.4"></path>
                        <path d="M17,82.000753 L17,82.000753 C17.004456,83.6557073 18.3091779,84.996175 19.92,85.000753 L87.08,85.000753 C88.6908221,84.996175 89.995544,83.6557073 90,82.000753 L90,82.000753 C89.995544,80.3457988 88.6908221,79.0053311 87.08,79.000753 L19.92,79.000753 C18.3091779,79.0053311 17.004456,80.3457988 17,82.000753 L17,82.000753 Z" id="路径" fill="#BAC2CB" fill-rule="nonzero" opacity="0.4"></path>
                        <path d="M19.92,101 L27.08,101 C28.6908221,100.995422 29.995544,99.6549543 30,98 C29.995544,96.3450457 28.6908221,95.004578 27.08,95 L19.92,95 C18.3091779,95.004578 17.004456,96.3450457 17,98 C17.004456,99.6549543 18.3091779,100.995422 19.92,101 Z" id="路径备份-2" fill="#BAC2CB" fill-rule="nonzero" opacity="0.4"></path>
                        <path d="M17,50.000753 L17,50.000753 C17.0044948,51.6557073 18.3205904,52.996175 19.9454545,53.000753 L41.0545455,53.000753 C42.6794096,52.996175 43.9955052,51.6557073 44,50.000753 L44,50.000753 C43.9955052,48.3457988 42.6794096,47.0053311 41.0545455,47.000753 L19.9454545,47.000753 C18.3205904,47.0053311 17.0044948,48.3457988 17,50.000753 Z" id="路径" fill="#BAC2CB" fill-rule="nonzero"></path>
                    </g>
                    <g id="成功" transform="translate(63.521368, 53.868098)">
                        <g id="Oval-9">
                            <use fill="black" fill-opacity="1" filter="url(#filter-4)" xlink:href="#path-3"></use>
                            <use fill="#36B37E" fill-rule="evenodd" xlink:href="#path-3"></use>
                        </g>
                        <path d="M23.13075,29.086914 L34.3671068,18.2607452 C34.7340832,17.9081296 35.321008,17.9138751 35.6808102,18.2736051 L36.7317729,19.3262769 C36.9062,19.5007039 37.00274,19.7365896 37,19.9815175 C36.9971415,20.2264453 36.8952349,20.4601266 36.7168657,20.6306345 L24.319605,32.5260092 C24.0016421,32.8315065 23.5747272,33.0017108 23.13075,33 C22.6874171,33.0012291 22.2612603,32.8310603 21.9437584,32.5260092 L14.2776934,25.100356 C14.0940335,24.9218985 13.9936065,24.6763784 14.0003159,24.4222341 C14.0070252,24.1680898 14.1202709,23.9280525 14.3130982,23.7592558 L15.3938754,22.8149744 C15.7597476,22.4957494 16.3135963,22.5093802 16.662857,22.8462055 L23.13075,29.086914 Z" id="路径" stroke="#FFFFFF" fill="#FFFFFF" fill-rule="nonzero"></path>
                    </g>
                </g>
            </g>
        </g>
    </g>
</svg>