<?xml version="1.0" encoding="UTF-8"?>
<svg width="30px" height="30px" viewBox="0 0 30 30" version="1.1" xmlns="http://www.w3.org/2000/svg" xmlns:xlink="http://www.w3.org/1999/xlink">
    <!-- Generator: Sketch 55.2 (78181) - https://sketchapp.com -->
    <title>问-声明</title>
    <desc>Created with Sketch.</desc>
    <g id="阿保2.2+齐欣API前端对接" stroke="none" stroke-width="1" fill="none" fill-rule="evenodd">
        <g id="投保信息填写1" transform="translate(-680.000000, -3209.000000)" fill="#3A8FFF" fill-rule="nonzero">
            <g id="3" transform="translate(0.000000, 2740.000000)">
                <g id="问-声明" transform="translate(680.000000, 469.000000)">
                    <path d="M15,0 C23.2835347,0 30,6.71646525 30,15 C30,23.2835347 23.2835347,30 15,30 C6.71646525,30 0,23.2835347 0,15 C0,6.71646525 6.71646525,0 15,0 Z M15,2 C7.82103475,2 2,7.82103475 2,15 C2,22.1789653 7.82103475,28 15,28 C22.1789653,28 28,22.1789653 28,15 C28,7.82103475 22.1789653,2 15,2 Z M18.5180628,7.895 C19.5011687,8.76363636 20.0431373,9.93136364 20.04,11.1818182 C20.04,13.0209091 18.8394628,14.6754545 16.9803844,15.3977273 C16.397453,15.6236364 16.0067314,16.1963636 16.0067314,16.8231818 L16.0067314,17.5454545 C16.0067314,17.6854545 15.8932961,17.8 15.754653,17.8 L14.2421824,17.8 C14.1035392,17.8 13.9901039,17.6854545 13.9901039,17.5454545 L13.9901039,16.8613636 C13.9901039,16.1263636 14.2043706,15.4009091 14.617149,14.7963636 C15.0236255,14.2045455 15.590802,13.7527273 16.2588098,13.495 C17.3332942,13.0781818 18.0265099,12.1713636 18.0265099,11.1818182 C18.0265099,9.77863636 16.6684373,8.63636364 15.0015687,8.63636364 C13.3347,8.63636364 11.9766275,9.77863636 11.9766275,11.1818182 L11.9766275,11.4236364 C11.9766275,11.5636364 11.8631922,11.6781818 11.724549,11.6781818 L10.2120784,11.6781818 C10.0734353,11.6781818 9.96,11.5636364 9.96,11.4236364 L9.96,11.1818182 C9.96,9.93136364 10.5019686,8.76363636 11.4850745,7.895 C12.4303686,7.06136364 13.6781569,6.6 15.0015687,6.6 C16.3249804,6.6 17.5727687,7.05818182 18.5180628,7.895 Z M13.32,22.84 C13.32,21.9121616 14.0721616,21.16 15,21.16 C15.9278384,21.16 16.68,21.9121616 16.68,22.84 C16.68,23.7678384 15.9278384,24.52 15,24.52 C14.0721616,24.52 13.32,23.7678384 13.32,22.84 Z"></path>
                </g>
            </g>
        </g>
    </g>
</svg>