<?xml version="1.0" encoding="UTF-8"?>
<svg width="30px" height="30px" viewBox="0 0 30 30" version="1.1" xmlns="http://www.w3.org/2000/svg" xmlns:xlink="http://www.w3.org/1999/xlink">
    <!-- Generator: Sketch 61.1 (89650) - https://sketch.com -->
    <title>icon-推荐</title>
    <desc>Created with Sketch.</desc>
    <g id="阿保保险方案UI-1217" stroke="none" stroke-width="1" fill="none" fill-rule="evenodd">
        <g id="05保险方案-方案详情" transform="translate(-60.000000, -1026.000000)" fill-rule="nonzero">
            <g id="编组-6" transform="translate(29.000000, 314.000000)">
                <g id="编组-3" transform="translate(0.000000, 460.000000)">
                    <g id="编组-4" transform="translate(1.000000, 130.000000)">
                        <g id="编组-5" transform="translate(30.000000, 116.000000)">
                            <g id="icon-推荐" transform="translate(0.000000, 6.000000)">
                                <g>
                                    <path d="M30,5 L30,25 C30,27.7614237 27.7614237,30 25,30 L5,30 C2.23857625,30 -1.43817996e-15,27.7614237 0,25 L0,5 C-3.38176876e-16,2.23857625 2.23857625,-1.26909153e-15 5,0 L25,0 C27.7614237,-5.07265313e-16 30,2.23857625 30,5 Z" id="路径" fill="#FF7200"></path>
                                    <path d="M9.60686921,13.7208719 L8.41968104,13.7208719 L8.41968104,22.8171554 L9.60686921,22.8171554 L9.60686921,13.7208719 Z M15.7628742,5 C16.3072434,5 16.7908054,5.16684962 17.2106646,5.50054885 C17.6334195,5.83424808 17.9056041,6.26328995 18.0272185,6.79065391 L18.1169815,7.17202446 C18.2067445,7.6874706 18.2501782,8.18801944 18.2501782,8.67367101 C18.2501782,9.64199467 18.0909212,10.5864827 17.7695118,11.5101145 L17.705809,11.6918614 L22.7672844,11.715697 C23.1408143,11.7276149 23.4969708,11.8318959 23.8328582,12.0285401 C24.1687455,12.2251843 24.4409301,12.490356 24.6465164,12.8180963 C24.7797131,13.0266583 24.8752673,13.2560765 24.9331789,13.4944331 C24.9910905,13.7357692 25.0113596,13.9800847 24.9939861,14.236318 L24.9795082,14.4627568 C24.9795082,14.4716952 24.918701,14.8113533 24.8028778,15.4787518 C24.6580987,16.2861847 24.5104241,17.0608437 24.3627495,17.8027286 C23.8878742,20.1594794 23.4767017,21.7445507 23.1321276,22.5579426 L22.9786618,22.8141759 C22.9120634,22.9601694 22.8078225,23.1061628 22.6688346,23.2551356 C22.5298468,23.4011291 22.376381,23.5322252 22.2026461,23.6424651 C21.8638632,23.8540066 21.49902,23.9731849 21.1023254,24 L5.80207591,23.9940411 C5.57332502,23.9880822 5.38221668,23.9165752 5.22875089,23.7854791 C5.0752851,23.6514035 5,23.4875333 5,23.2938686 L5.00868674,13.2501176 C5.00868674,13.0534734 5.07818068,12.8866238 5.22006415,12.7465893 C5.36194761,12.6065548 5.5298913,12.5380273 5.72968639,12.5380273 L9.34916251,12.5350478 C9.61555595,12.5350478 9.97460798,12.3920339 10.423423,12.106006 C10.8838204,11.8140191 11.3326354,11.435628 11.764077,10.9738121 C12.247639,10.4613455 12.6356468,9.92504312 12.9223093,9.36788459 C13.2524056,8.72730124 13.429036,8.11055355 13.4435139,7.51466207 C13.4377227,7.46401129 13.4348272,7.39548377 13.4348272,7.31205896 C13.4348272,6.67445507 13.6606825,6.12921436 14.1152887,5.67931629 C14.5698949,5.22643876 15.1200552,5 15.7628742,5 Z" id="形状" fill="#FFFFFF"></path>
                                </g>
                            </g>
                        </g>
                    </g>
                </g>
            </g>
        </g>
    </g>
</svg>