<?xml version="1.0" encoding="UTF-8"?>
<svg width="333px" height="96px" viewBox="0 0 333 96" version="1.1" xmlns="http://www.w3.org/2000/svg" xmlns:xlink="http://www.w3.org/1999/xlink">
    <!-- Generator: Sketch 61.1 (89650) - https://sketch.com -->
    <title>阿保logo</title>
    <desc>Created with Sketch.</desc>
    <defs>
        <polygon id="path-1" points="0.25411505 0.461144033 4.85720067 0.461144033 4.85720067 26.7189216 0.25411505 26.7189216"></polygon>
        <polygon id="path-3" points="0.072035533 0.0385766486 48.3316844 0.0385766486 48.3316844 34.627416 0.072035533 34.627416"></polygon>
        <polygon id="path-5" points="6.77035119e-05 0.0636820866 76.9314172 0.0636820866 76.9314172 77.1531135 6.77035119e-05 77.1531135"></polygon>
        <polygon id="path-7" points="0.144560272 0.0266362574 34.1410513 0.0266362574 34.1410513 33.5574317 0.144560272 33.5574317"></polygon>
    </defs>
    <g id="阿保保险方案UI-1217" stroke="none" stroke-width="1" fill="none" fill-rule="evenodd">
        <g id="01保险方案-封面2单身男" transform="translate(-208.000000, -94.000000)">
            <g id="编组" transform="translate(111.000000, 94.000000)">
                <g id="阿保logo" transform="translate(97.000000, 0.000000)">
                    <g id="编组-7" transform="translate(2.000000, 9.000000)">
                        <circle id="椭圆形" fill="#FFFFFF" cx="37.5" cy="40.5" r="36.5"></circle>
                        <g id="编组">
                            <path d="M33.8105929,44.9275284 L33.8839737,45.003457 C36.2242113,47.4288873 40.1170653,47.3939846 42.4126629,44.9275284" id="Stroke-1" stroke="#000000" stroke-width="2" stroke-linecap="round" stroke-linejoin="round"></path>
                            <g transform="translate(3.057535, 25.654084)">
                                <mask id="mask-2" fill="white">
                                    <use xlink:href="#path-1"></use>
                                </mask>
                                <g id="Clip-4"></g>
                                <path d="M2.84888914,0.461144033 C3.03478729,0.589120534 3.04518291,0.768532566 2.98770125,0.96141581 C1.88454249,4.63109605 1.74634189,8.4024227 1.93285155,12.1835466 C2.08511681,15.2813127 3.02378017,18.1874202 4.54092921,20.8945212 C4.7133742,21.2031344 4.85035179,21.3782602 4.85768987,21.3782602 C3.67870424,22.8435605 3.28367067,24.6542137 2.81770228,26.7189829 C0.976454492,22.2189862 0.226746822,17.7985921 0.254876147,13.2275654 C0.280559444,9.06312435 1.00091477,5.02910909 2.47953887,1.13470456 C2.56943041,0.897733723 2.57554548,0.601979417 2.84888914,0.461144033" id="Fill-3" fill="#FFCC00" mask="url(#mask-2)"></path>
                            </g>
                            <g transform="translate(25.071790, 29.940378)">
                                <mask id="mask-4" fill="white">
                                    <use xlink:href="#path-3"></use>
                                </mask>
                                <g id="Clip-6"></g>
                                <path d="M0.072035533,23.2840691 C0.721456043,23.2418185 1.09080631,23.7010643 1.50663112,24.0813198 C5.49610326,27.7363042 10.2028732,29.9547677 15.5180926,30.7354855 C23.7832222,31.9497315 31.2252633,29.8286281 37.5849368,24.4450425 C42.5626044,20.2334522 45.6042406,14.7757749 46.7281906,8.30102122 C47.155634,5.83395269 47.3867837,3.36382253 46.9709589,0.867974594 C46.9244843,0.589365465 46.8559955,0.253197527 47.1721447,0.0382704847 C47.8564211,1.82136891 48.0410962,3.71040004 48.1933615,5.580449 C48.7914154,12.9296067 47.54761,19.8244173 42.5442592,25.5509064 C37.9909775,30.7630403 32.1321283,33.6813944 25.2789685,34.3721001 C15.0753615,35.4008107 6.76742646,33.4652427 0.158869537,25.9183031 C0.0396256582,25.7811417 0.161315565,23.4469483 0.072035533,23.2840691" id="Fill-5" fill="#FFCC00" mask="url(#mask-4)"></path>
                            </g>
                            <path d="M49.5031485,26.1080635 C48.2079765,25.9641664 46.9030204,27.1845357 46.912145,28.6761661 C46.9225887,30.405992 48.3736949,31.2914179 49.4475014,31.2675371 C51.0331392,31.2320221 52.0482409,30.079009 52.0610826,28.6675935 C52.0727012,27.3223094 51.0166285,26.0407074 49.5031485,26.1080635 M54.5872183,36.6462241 C50.2595827,36.7870595 46.5085984,33.5796867 45.5051153,29.8622449 C45.0672762,28.240801 44.9119534,26.6567091 45.3198286,25.0401639 C45.8023077,23.1272519 46.8547114,21.6558283 48.8243756,21.0716677 C55.083762,19.2144776 61.6354488,25.9678404 61.044733,31.6753474 C60.8606693,34.0340339 59.0591695,35.9549061 56.8632476,36.4117026 C56.1025328,36.5702955 55.3528251,36.6327529 54.5872183,36.6462241" id="Fill-7" fill="#0B0906"></path>
                            <path d="M24.0670838,28.6674098 C24.0799255,30.0794376 25.0950272,31.2318384 26.6800535,31.2673534 C27.7538599,31.2912342 29.2049662,30.4058083 29.2160214,28.6765947 C29.225146,27.184352 27.9201899,25.9639827 26.6250179,26.1078798 C25.1115379,26.0405237 24.0548537,27.322738 24.0670838,28.6674098 M19.2643073,36.4115189 C17.0689969,35.9547224 15.2668855,34.0344626 15.0828219,31.6751637 C14.4927176,25.9670444 21.0444044,19.2142939 27.3037907,21.0720963 C29.273455,21.656257 30.3252472,23.1270682 30.8077263,25.0399802 C31.2156015,26.6565254 31.0608902,28.2412297 30.6230511,29.8620612 C29.619568,33.579503 25.8679721,36.7874882 21.5397251,36.6460404 C20.7747297,36.6331816 20.0250221,36.5701118 19.2643073,36.4115189" id="Fill-9" fill="#0B0906"></path>
                            <path d="M38.0099342,40.9635634 C38.7743181,40.9255991 39.4622635,40.6959762 39.8389519,40.5000313 C41.5450566,39.7199258 42.6488269,38.3519856 42.6488269,38.3519856 C42.7576751,38.197679 43.3275997,37.1034493 43.3257696,36.6123624 C43.3245422,36.1672001 43.1942912,35.1305292 42.0159171,35.1078731 C40.1447054,35.0717458 38.2380264,35.0754197 36.3955556,35.0772567 C35.6482939,35.0790937 34.9022553,35.0809307 34.1519361,35.0784814 L34.1501016,35.0784814 C33.710428,35.0784814 33.273812,35.3252495 33.0090294,35.7214255 C32.8390304,35.9779909 32.6176649,36.5101037 32.9050732,37.2504079 C34.1115767,40.3512357 37.6234618,40.9825456 38.0099342,40.9635634" id="Fill-11" fill="#0B0906"></path>
                            <g transform="translate(0.000000, 0.548646)">
                                <mask id="mask-6" fill="white">
                                    <use xlink:href="#path-5"></use>
                                </mask>
                                <g id="Clip-14"></g>
                                <path d="M67.6158045,54.9427612 C63.0631344,60.1555074 57.2036736,63.0732491 50.3505138,63.7639548 C42.368512,64.5691658 35.5960712,62.533176 29.8894872,57.8690755 C25.0133299,53.1327203 25.3820686,46.7939034 25.3820686,46.7939034 C25.3820686,46.7939034 25.9685039,42.7849936 23.6582302,41.9399813 C20.9480308,40.9486227 19.2504872,42.9723659 18.5545922,44.9263038 C15.3845395,43.2889393 11.2807155,43.3213927 8.05256972,46.3389439 C6.78369255,47.7228046 5.96916513,49.5248852 5.87499304,51.8241759 C4.03374525,47.3254039 3.28403758,42.9043975 3.3121669,38.3333708 C3.3378502,34.1683174 4.05759402,30.1343022 5.53621812,26.2398976 C5.62672117,26.0029268 5.63283624,25.7077848 5.9061799,25.5663371 C7.57375968,20.8648846 10.3542823,16.8767939 13.912642,13.4502078 C21.439071,6.20085949 30.4661384,2.97083057 40.8904995,3.48151192 C54.9588311,4.1716053 68.4303319,14.924693 72.0400582,28.432031 C72.1281152,28.759014 72.1770357,29.0976313 72.24369,29.4301252 C72.9273549,31.2132237 73.1126416,33.1028671 73.2649068,34.9723038 C73.8629607,42.3220738 72.6191554,49.2150474 67.6158045,54.9427612 M70.9301728,18.0193975 C70.5846713,17.4652409 70.3987732,17.1205004 70.9583022,16.4971507 C74.3436053,12.7252117 74.0861608,7.10404293 70.4440247,3.70868552 C66.7713132,0.285161036 61.2194405,0.397217015 57.6702535,4.04669044 C57.0281711,4.70800442 56.6154038,4.6657538 55.8711997,4.3038681 C44.0415954,-1.44282789 32.2382859,-1.34669243 20.5010192,4.58308955 C19.7800523,4.9480369 19.4284358,4.92293146 18.8572882,4.28733525 C15.3882085,0.428445731 9.55748862,0.201272133 5.84686371,3.71235949 C2.09037577,7.26937142 1.93811051,13.0099441 5.56862799,16.7433065 C6.17096246,17.3629821 6.15322876,17.7254802 5.73495792,18.4186352 C0.957864677,26.3225619 -0.880937087,34.8455519 0.392220636,44.0323052 C3.00885939,62.9091453 19.3391557,77.1512766 39.2626676,77.1531135 C40.7253925,77.140867 43.0191556,76.9345125 45.3013,76.5358872 C60.9387588,73.7981698 73.666667,61.0372593 76.3334493,45.3628934 C77.9991946,35.5699356 76.1805725,26.4480891 70.9301728,18.0193975" id="Fill-13" fill="#1E1E1E" mask="url(#mask-6)"></path>
                            </g>
                            <path d="M138.221879,23.7526223 C138.221879,43.036048 138.391878,52.323223 138.391878,52.323223 L140.511361,52.3060779 C141.089847,52.3011792 141.554592,51.8302992 141.550312,51.2504248 C141.528297,48.1269409 141.552146,40.3399689 141.620023,23.7526223 L138.221879,23.7526223 Z M148.502535,20.5581084 L148.502535,51.0269252 C148.502535,53.7107577 146.319455,55.8845213 143.63127,55.874757 L131.745407,55.8349227 L131.629832,20.5011619 L148.502535,20.5581084 Z M161.590621,13.7692305 L161.590621,17.5344339 L159.306031,17.5344339 L159.104234,59.4268373 C159.088946,62.572365 156.516336,65.1074019 153.366463,65.0800697 C152.235175,65.0712746 151.446331,65.0571911 151.446331,65.0571911 L151.775321,17.3060357 L149.649111,17.3060357 C149.306667,17.3060357 130.850772,17.4199286 130.850772,17.4199286 L130.964513,13.7692305 L161.590621,13.7692305 Z" id="Fill-15" fill="#1A1A1A"></path>
                            <path d="M204.254491,40.115612 L211.767467,40.115612 L213.788498,64.6215811 L211.490454,64.6166825 C208.276985,64.6087222 205.621821,62.1036894 205.421858,58.8926426 L204.254491,40.115612 Z M188.020202,17.0780048 L188.020202,27.8733431 L203.668056,27.7600625 C204.601827,27.7533269 205.355816,26.9928158 205.355816,26.0577914 L205.355816,17.0780048 L188.020202,17.0780048 Z M213.946267,13.4842532 L214.199431,26.5568385 C214.248351,29.0943247 212.207752,31.1774637 209.673667,31.1774637 L200.885699,31.1774637 L200.885699,34.948178 L214.402451,34.948178 L214.402451,38.2957739 L200.885699,38.2957739 C200.974979,44.6670442 200.948684,52.332163 200.915051,59.1357367 C200.899152,62.3186164 198.310031,64.886719 195.121633,64.886719 L192.333161,64.886719 L192.390643,38.2957739 L179.319679,38.2957739 L179.319679,34.9298082 L192.359456,34.9298082 L192.359456,31.1774637 L179.319679,31.1774637 L179.433419,13.4842532 L213.946267,13.4842532 Z M189.452351,40.0960175 L187.890562,58.8185509 C187.61783,62.0877688 184.888674,64.6019866 181.612219,64.6019866 L179.319679,64.6019866 L181.747974,40.0960175 L189.452351,40.0960175 Z" id="Fill-17" fill="#1A1A1A"></path>
                            <g transform="translate(293.523394, 31.165033)">
                                <mask id="mask-8" fill="white">
                                    <use xlink:href="#path-7"></use>
                                </mask>
                                <g id="Clip-20"></g>
                                <path d="M18.6567138,6.28033963 C18.6567138,6.28033963 19.3703426,15.2086906 19.8992962,21.5756746 C20.179978,24.9526622 17.5180877,27.8459109 14.1340075,27.8459109 L13.4332204,27.8459109 L11.6341666,6.28033963 L18.6567138,6.28033963 Z M8.37238792,6.33667378 L9.70608484,21.5468952 C10.0026658,24.9324554 7.33771795,27.8459109 3.9432422,27.8459109 L2.72573162,27.8459109 L1.4703076,6.33667378 L8.37238792,6.33667378 Z M0.25768908,3.05092304 L33.0546478,3.05092304 L33.0546478,0.0266362574 L0.25768908,0.0266362574 L0.25768908,3.05092304 Z M22.6198912,30.1856152 L29.5782301,30.1856152 L34.1412959,30.1856152 L34.1412959,33.4940221 C22.52205,33.6073027 11.190824,33.5687261 0.144560272,33.3789045 L0.144560272,30.1856152 L22.6198912,30.1856152 Z" id="Fill-19" fill="#1A1A1A" mask="url(#mask-8)"></path>
                            </g>
                            <path d="M118.115893,17.5127575 L118.115893,59.2863694 C118.115893,62.4233244 115.568966,64.9657093 112.427043,64.9657093 L110.249466,64.9657093 L110.249466,13.8945128 L128.998273,13.8945128 L128.998273,17.5127575 L126.988861,34.144804 L128.775073,34.144804 L127.73918,49.8326411 C127.758748,52.9818428 125.206317,55.5474961 122.050329,55.5474961 L120.021349,55.5474961 L121.85587,34.144804 L119.847069,34.144804 L121.85587,17.5127575 L118.115893,17.5127575 Z" id="Fill-21" fill="#1A1A1A"></path>
                            <path d="M281.591913,17.5127575 L281.591913,59.2863694 C281.591913,62.4233244 279.044986,64.9657093 275.903063,64.9657093 L273.725486,64.9657093 L273.725486,13.8945128 L292.474293,13.8945128 L292.474293,17.5127575 L290.46488,34.144804 L292.251093,34.144804 L291.2152,49.8326411 C291.234768,52.9818428 288.682337,55.5474961 285.526349,55.5474961 L283.497369,55.5474961 L285.33189,34.144804 L283.323089,34.144804 L285.33189,17.5127575 L281.591913,17.5127575 Z" id="Fill-23" fill="#1A1A1A"></path>
                            <path d="M176.344024,13.2273205 L174.890472,25.7935107 L176.567224,25.7935107 L176.567224,59.3441731 C176.567224,62.5466473 173.967096,65.1441416 170.759742,65.1441416 L168.538137,65.1441416 L168.538137,38.3247982 L164.666685,38.3247982 L167.936414,13.2273205 L176.344024,13.2273205 Z" id="Fill-25" fill="#1A1A1A"></path>
                            <path d="M258.269522,40.115612 L265.782498,40.115612 L267.803529,64.6215811 L265.544011,64.6166825 C262.307915,64.6087222 259.635018,62.0865442 259.433832,58.8534536 L258.269522,40.115612 Z M242.035233,17.0780048 L242.035233,27.8733431 L257.755245,27.7594502 C258.64988,27.7533269 259.371458,27.0252692 259.371458,26.1294337 L259.371458,17.0780048 L242.035233,17.0780048 Z M267.961298,13.4842532 L268.214462,26.5568385 C268.263382,29.0943247 266.222783,31.1774637 263.688698,31.1774637 L254.90073,31.1774637 L254.90073,34.948178 L268.417482,34.948178 L268.417482,38.2957739 L254.90073,38.2957739 C254.988175,44.5678471 254.964327,52.0951922 254.931305,58.8203879 C254.914795,62.175944 252.185027,64.886719 248.822961,64.886719 L246.348192,64.886719 L246.405062,38.2957739 L233.33471,38.2957739 L233.33471,34.9298082 L246.374487,34.9298082 L246.374487,31.1774637 L233.33471,31.1774637 L233.44845,13.4842532 L267.961298,13.4842532 Z M243.467382,40.0960175 L241.876852,59.1528819 C241.620019,62.2335028 239.048632,64.6019866 235.961744,64.6019866 L233.33471,64.6019866 L235.763005,40.0960175 L243.467382,40.0960175 Z" id="Fill-27" fill="#1A1A1A"></path>
                            <path d="M230.359973,13.2273205 L228.905809,25.7935107 L230.583173,25.7935107 L230.583173,59.1274091 C230.583173,62.4498995 227.885815,65.1441416 224.558605,65.1441416 L222.552862,65.1441416 L222.552862,38.3247982 L218.682022,38.3247982 L221.951751,13.2273205 L230.359973,13.2273205 Z" id="Fill-29" fill="#1A1A1A"></path>
                            <polygon id="Fill-31" fill="#1A1A1A" points="302.198295 28.8790915 294.056078 28.8790915 298.716373 13.483947 321.602026 13.483947 326.303292 28.8790915 317.968451 28.8790915 315.122497 17.0042193 305.362844 17.0042193"></polygon>
                            <path d="M315.913603,63.2830326 L318.420171,37.0454006 L325.664695,37.2168524 L323.480392,57.606142 C323.134279,60.8343339 320.412461,63.2830326 317.169639,63.2830326 L315.913603,63.2830326 Z" id="Fill-33" fill="#1A1A1A"></path>
                        </g>
                    </g>
                </g>
            </g>
        </g>
    </g>
</svg>