<?xml version="1.0" encoding="UTF-8"?>
<svg width="46px" height="46px" viewBox="0 0 46 46" version="1.1" xmlns="http://www.w3.org/2000/svg" xmlns:xlink="http://www.w3.org/1999/xlink">
    <title>保障权利icon</title>
    <defs>
        <filter x="-48.0%" y="-43.4%" width="196.0%" height="186.7%" filterUnits="objectBoundingBox" id="filter-1">
            <feOffset dx="0" dy="2" in="SourceAlpha" result="shadowOffsetOuter1"></feOffset>
            <feGaussianBlur stdDeviation="2" in="shadowOffsetOuter1" result="shadowBlurOuter1"></feGaussianBlur>
            <feColorMatrix values="0 0 0 0 0.137254902   0 0 0 0 0.478431373   0 0 0 0 0.996078431  0 0 0 0.297585227 0" type="matrix" in="shadowBlurOuter1" result="shadowMatrixOuter1"></feColorMatrix>
            <feMerge>
                <feMergeNode in="shadowMatrixOuter1"></feMergeNode>
                <feMergeNode in="SourceGraphic"></feMergeNode>
            </feMerge>
        </filter>
        <linearGradient x1="9.20915713%" y1="17.8662978%" x2="90.7908429%" y2="55.6%" id="linearGradient-2">
            <stop stop-color="#75ABFE" offset="0%"></stop>
            <stop stop-color="#0065FF" offset="100%"></stop>
        </linearGradient>
        <path d="M12.5000162,0 C10.2439415,1.34438983 8.127401,2.3361334 6.15039478,2.97523073 C4.17338855,3.61432806 2.12325696,3.9695246 0,4.04082034 L0.0632436441,16.5696323 L0.0779078968,16.739765 C0.100259581,16.8436905 0.581143736,19.343318 2.98656573,21.7513256 C4.83558593,23.6077559 9.3707485,26.032716 11.3057516,27.0673562 C11.6099864,27.230567 11.8367332,27.3510282 11.9666766,27.4249266 L12.425952,27.6785714 L12.9904934,27.3868238 C14.121482,26.8221716 19.8744559,23.8971963 22.0122715,21.7547866 C24.4200191,19.3444716 24.9009033,16.8448441 24.9213169,16.7409186 L25,4.04197403 C23.1037756,4.04389342 21.0584566,3.69006215 18.864043,2.98048021 C16.6696294,2.27089827 14.5482871,1.27740487 12.5000162,0 Z" id="path-3"></path>
    </defs>
    <g id="展业端H5UI-20210622" stroke="none" stroke-width="1" fill="none" fill-rule="evenodd">
        <g id="2-2-1产品详情" transform="translate(-49.000000, -2212.000000)" fill-rule="nonzero">
            <g id="foot" transform="translate(0.000000, 2181.000000)">
                <g id="其他" transform="translate(44.000000, 31.000000)">
                    <g id="保障权利icon" transform="translate(5.000000, 0.000000)">
                        <g transform="translate(10.000000, 9.000000)">
                            <g id="保障权利" filter="url(#filter-1)">
                                <g id="路径">
                                    <use fill="#000000" xlink:href="#path-3"></use>
                                    <use fill="url(#linearGradient-2)" xlink:href="#path-3"></use>
                                </g>
                            </g>
                            <path d="M17.9575232,9.92841293 C18.3915488,9.49074011 19.0982,9.48778341 19.5358728,9.92180896 C19.9443674,10.3268995 19.974176,10.9694772 19.6234561,11.409198 L19.5424768,11.5001585 L12.4591434,18.6430156 C12.0731297,19.0322732 11.4676228,19.079857 11.0280844,18.7725748 L10.9297741,18.6953581 L5.51310746,13.9334534 C5.05017396,13.5264788 5.00481023,12.8212791 5.41178474,12.3583456 C5.79162762,11.9262743 6.43125784,11.8579527 6.89123576,12.1816488 L6.98689254,12.2570228 L11.6133929,16.325 L17.9575232,9.92841293 Z" id="路径-2" fill="#FFFFFF"></path>
                        </g>
                    </g>
                </g>
            </g>
        </g>
    </g>
</svg>