<?xml version="1.0" encoding="UTF-8"?>
<svg width="15px" height="15px" viewBox="0 0 15 15" version="1.1" xmlns="http://www.w3.org/2000/svg" xmlns:xlink="http://www.w3.org/1999/xlink">
    <title>icon-保障权利</title>
    <g id="展业端H5UI-20210622" stroke="none" stroke-width="1" fill="none" fill-rule="evenodd">
        <g id="2-2-4产品详情-保障权利" transform="translate(-30.000000, -216.000000)" fill="#172B4D" fill-rule="nonzero">
            <g id="编组-5" transform="translate(0.000000, 160.000000)">
                <g id="编组-4" transform="translate(30.000000, 52.000000)">
                    <g id="icon-保障权利" transform="translate(0.000000, 4.000000)">
                        <path d="M3.74998541,1.00481112 C6.0705009,-0.334937041 8.9294991,-0.334937041 11.2500146,1.00481112 C13.5705301,2.34455929 15,4.8205141 15,7.5 C15,10.1794859 13.5705301,12.6554407 11.2500146,13.9951889 C8.9294991,15.334937 6.0705009,15.334937 3.74998541,13.9951889 C1.42946991,12.6554407 -2.66453526e-15,10.1794859 -2.66453526e-15,7.5 C-2.66453526e-15,4.8205141 1.42946991,2.34455929 3.74998541,1.00481112 Z M7.5,3.5 L6.3244295,5.88196601 L3.69577393,6.26393202 L5.59788697,8.11803399 L5.14885899,10.736068 L7.5,9.5 L9.85114101,10.736068 L9.40211303,8.11803399 L11.3042261,6.26393202 L8.6755705,5.88196601 L7.5,3.5 Z"></path>
                    </g>
                </g>
            </g>
        </g>
    </g>
</svg>